<svg width="157" height="141" viewBox="0 0 157 141" fill="none" xmlns="http://www.w3.org/2000/svg">
<path fill-rule="evenodd" clip-rule="evenodd" d="M147.087 39.555C137.749 26.525 124.004 17.377 109.841 9.94997C98.9318 4.22997 86.9528 -0.759034 74.7088 0.458966C63.3188 1.59297 53.1918 7.93697 43.5328 14.112C33.6728 20.415 23.7788 26.745 14.8528 34.327C10.9698 37.626 7.22475 41.222 4.68075 45.647C-1.44125 56.294 0.401752 69.73 4.08675 81.457C9.66575 99.212 19.3938 116.113 34.1088 127.42C48.8248 138.728 68.9488 143.727 86.4738 137.7C110.011 129.605 111.854 114.33 132.765 100.782C132.765 100.782 149.211 93.515 154.856 85.078C158.816 79.16 156.424 52.585 147.087 39.555Z" fill="#8E56FF" fill-opacity="0.102"/>
</svg>
