<svg width="151" height="141" viewBox="0 0 151 141" fill="none" xmlns="http://www.w3.org/2000/svg">
<g clip-path="url(#clip0_3_289)">
<path fill-rule="evenodd" clip-rule="evenodd" d="M146.73 49.6452C145.797 47.4482 144.683 45.1952 143.381 42.8582C135.997 29.6062 122.614 20.6822 108.543 15.2032C94.471 9.72417 79.467 7.23417 64.793 3.70917C58.553 2.21017 52.271 0.508168 45.856 0.556168C32.431 0.656168 19.826 8.71117 12.095 19.7692C4.36497 30.8272 1.07097 44.5402 0.526969 58.0542C0.0379692 70.1812 1.82297 82.8682 8.57997 92.9162C12.194 98.2922 17.06 102.67 21.873 106.987L44.373 127.172C48.42 130.803 52.527 134.475 57.361 136.942C73.228 145.039 97.338 138.501 109.852 127.273C112.851 124.581 116.011 122.109 119.238 119.703C125.435 115.083 131.801 110.523 136.753 104.498C140.971 99.3682 144.216 93.5132 146.44 87.2432C151.505 72.9672 152.063 62.2032 146.73 49.6452Z" fill="#1AB69D" fill-opacity="0.102"/>
</g>
<defs>
<clipPath id="clip0_3_289">
<rect width="151" height="141" fill="white"/>
</clipPath>
</defs>
</svg>
